<?xml version="1.0" encoding="utf-8"?>
<!-- Generator: Adobe Illustrator 25.0.1, SVG Export Plug-In . SVG Version: 6.00 Build 0)  -->
<svg version="1.1" xmlns="http://www.w3.org/2000/svg" xmlns:xlink="http://www.w3.org/1999/xlink" x="0px" y="0px"
	 viewBox="0 0 500 165" style="enable-background:new 0 0 500 165;" xml:space="preserve">
<style type="text/css">
	.st0{display:none;}
	.st1{display:inline;opacity:0.5;fill:#8DD0BC;}
	.st2{fill:#FFFFFF;}
</style>
<g id="ClearSpace" class="st0">
	<rect x="200.8" y="80.4" class="st1" width="6.4" height="6.4"/>
	<rect x="209.4" y="55.2" class="st1" width="12.7" height="12.7"/>
	<rect x="209.4" y="97.2" class="st1" width="12.7" height="12.7"/>
	<rect x="188" y="69.4" class="st1" width="12.7" height="12.7"/>
	<rect x="299.5" y="69.4" class="st1" width="12.7" height="12.7"/>
</g>
<g id="Template">
	<g>
		<g>
			<path class="st2" d="M216.3,43.5h32.6l-17.2-27.8L200,65.9h-14.5l38.5-60.3c1.6-2.4,4.5-3.9,7.6-3.9c3,0,5.8,1.4,7.4,3.8
				l38.7,60.4h-14.4l-6.8-11.2h-33.1L216.3,43.5 M366,54.7V2.3h-12.3v57.6c0,1.6,0.7,3.1,1.8,4.2c1.2,1.2,2.8,1.9,4.5,1.9h55.8
				l7.3-11.2H366 M163.6,45.3c11.9,0,21.5-9.6,21.5-21.5s-9.6-21.5-21.5-21.5h-53.5v63.6h12.2V13.5h40.5c5.7,0,10.3,4.6,10.3,10.3
				c0,5.7-4.6,10.3-10.3,10.3l-34.5,0l36.5,31.8h17.8L158,45.3H163.6 M34.8,65.9h37c17.6,0,31.8-14.2,31.8-31.8
				c0-17.6-14.2-31.8-31.8-31.8h-37C17.2,2.3,2.9,16.5,2.9,34.1C2.9,51.7,17.2,65.9,34.8,65.9 M70.9,54.7H35.6
				C24.2,54.7,15,45.5,15,34.1c0-11.4,9.2-20.6,20.6-20.6h35.3c11.4,0,20.6,9.2,20.6,20.6C91.5,45.5,82.3,54.7,70.9,54.7
				 M303.3,65.9h37.8l7.1-11.2h-44.1c-11.4,0-20.6-9.2-20.6-20.6c0-11.4,9.2-20.6,20.6-20.6H340l7.2-11.2h-44
				c-17.6,0-31.9,14.2-31.9,31.8C271.4,51.7,285.7,65.9,303.3,65.9 M452.9,54.7c-9.4,0-17.4-6.3-19.8-15h52.3l7.2-11.2h-59.5
				c2.4-8.7,10.4-15,19.8-15h35.9L496,2.3h-43.9c-17.6,0-31.8,14.2-31.8,31.8c0,17.6,14.2,31.8,31.8,31.8h37.8l7.2-11.2H452.9"/>
		</g>
		<g>
			<path class="st2" d="M3.4,148.8l19.7-50.9h6.5l19.8,50.9h-7.2l-4.5-12.5H14.9l-4.5,12.5H3.4z M16.9,130.6h18.7l-9.4-26
				L16.9,130.6z"/>
			<path class="st2" d="M81.8,148.8l-1.1-5.9c-1.4,2.1-3.2,3.7-5.4,4.9c-2.2,1.2-4.5,1.8-7,1.8c-4.8,0-8.6-1.7-11.3-5
				c-2.7-3.4-4.1-8-4.1-13.9c0-6,1.4-10.7,4.1-14.1c2.7-3.4,6.5-5,11.5-5c2.1,0,4.1,0.4,6,1.2c2,0.8,3.7,1.9,5.3,3.4V96.2h6.3v52.6
				H81.8z M59.4,130.5c0,4.4,0.9,7.9,2.6,10.3c1.7,2.4,4.2,3.6,7.4,3.6c2.2,0,4.2-0.6,6.1-1.8c1.8-1.2,3.3-2.8,4.4-4.9v-16.3
				c-2.9-3.3-6.2-5-10.2-5c-3.3,0-5.8,1.2-7.6,3.6C60.3,122.5,59.4,126,59.4,130.5z"/>
			<path class="st2" d="M106.7,148.8l-14.4-36.6h6.6l10.6,29l10.5-29h6.4L112,148.8H106.7z"/>
			<path class="st2" d="M159.6,147c-1.3,0.8-3,1.4-5.2,1.9c-2.2,0.5-4.5,0.7-7.1,0.7c-5.8,0-10.2-1.6-13.1-4.9
				c-3-3.3-4.4-8.1-4.4-14.5c0-6.1,1.4-10.8,4.2-13.9s6.9-4.8,12.2-4.8c10.2,0,15.3,5.6,15.3,16.9v4.1h-25.3c0.3,4.1,1.4,7.1,3.3,9
				c1.9,1.9,4.8,2.8,8.5,2.8c2.1,0,4.1-0.2,6-0.6c1.9-0.4,3.8-1.1,5.7-2V147z M146.1,116.6c-3.1,0-5.5,0.9-7.2,2.8
				c-1.7,1.8-2.6,4.5-2.8,8h19.2c0-3.8-0.7-6.6-2.1-8.3C151.7,117.5,149.4,116.6,146.1,116.6z"/>
			<path class="st2" d="M169.4,148.8v-36.6h4.3l1.3,6.9c2.4-4.6,5.8-6.9,10.2-6.9c0.9,0,1.7,0.1,2.4,0.2v5.5H186
				c-2.7,0-4.9,0.7-6.7,2.2c-1.8,1.5-3,3.7-3.6,6.5v22.1H169.4z"/>
			<path class="st2" d="M198.6,137.7v-20.3h-6.3v-3.2l6.3-2.1l2.5-10h3.8v10.1h7.9v5.2h-7.9v20.2c0,4,1.7,6,5.2,6
				c0.6,0,1.1,0,1.6-0.1c0.5-0.1,1-0.1,1.5-0.2v5.5c-0.7,0.1-1.3,0.2-2,0.3c-0.7,0-1.4,0.1-2.1,0.1c-3.6,0-6.2-0.9-8-2.8
				C199.4,144.5,198.6,141.6,198.6,137.7z"/>
			<path class="st2" d="M222.3,148.8v-31.7l-3.6-2.3v-2.6h10v36.6H222.3z M220.9,103.7v-5.7h7.7v5.7H220.9z"/>
			<path class="st2" d="M237.2,147v-5.3c2.2,0.9,4.2,1.6,6,2c1.8,0.4,3.7,0.6,5.7,0.6c6.1,0,9.1-1.8,9.1-5.5c0-1.4-0.4-2.6-1.3-3.4
				c-0.9-0.8-2.5-1.5-4.7-2.1l-5.7-1.5c-3.4-0.9-5.8-2.2-7.4-3.8c-1.5-1.6-2.3-3.7-2.3-6.2c0-3.2,1.2-5.7,3.7-7.5
				c2.5-1.8,5.9-2.8,10.1-2.8c2.3,0,4.5,0.2,6.4,0.6c1.9,0.4,3.6,0.9,5,1.5v5.3c-3.6-1.5-7.2-2.2-10.9-2.2c-5.3,0-8,1.5-8,4.6
				c0,1.3,0.4,2.4,1.2,3.1c0.8,0.8,2.3,1.4,4.3,2l5.8,1.5c3.5,0.9,6.1,2.2,7.7,3.9c1.6,1.7,2.4,3.9,2.4,6.7c0,3.4-1.3,6.1-4,8.1
				c-2.7,2-6.3,2.9-11.1,2.9c-2.2,0-4.4-0.2-6.6-0.7C240.5,148.4,238.7,147.8,237.2,147z"/>
			<path class="st2" d="M272.4,148.8v-31.7l-3.6-2.3v-2.6h9.9v36.6H272.4z M270.9,103.7v-5.7h7.7v5.7H270.9z"/>
			<path class="st2" d="M289.2,148.8v-36.6h4.3l1.1,6.2c1.5-2.2,3.4-4,5.7-5.2c2.2-1.2,4.8-1.8,7.6-1.8c4.2,0,7.4,1.3,9.7,3.8
				s3.4,6.2,3.4,10.9v22.6h-6.3v-22.4c0-6.3-2.8-9.5-8.3-9.5c-2.3,0-4.5,0.7-6.4,2.1c-1.9,1.4-3.4,3.4-4.4,5.8v24H289.2z"/>
			<path class="st2" d="M330.2,144.4l-1.3-3.6l5.5-8.5c-2.2-2.2-3.4-5-3.4-8.4c0-3.9,1.3-6.9,4-9.1c2.7-2.2,6.4-3.3,11.2-3.3
				c2.4,0,4.6,0.4,6.6,1.1l11.8-0.1v3.2l-4.9,1.5c1.8,1.8,2.7,4.1,2.7,6.9c0,3.8-1.4,6.8-4.2,9c-2.8,2.2-6.6,3.2-11.5,3.2
				c-3,0-5.7-0.4-8-1.3l-3.2,4.9l17.9,2.4c3.9,0.5,6.7,1.6,8.5,3.2c1.8,1.6,2.7,3.9,2.7,6.7c0,3.5-1.6,6.4-4.8,8.4
				c-3.2,2.1-7.6,3.1-13.1,3.1c-5.6,0-9.9-0.9-12.9-2.7c-3-1.8-4.5-4.4-4.5-7.7c0-3.2,1.5-6,4.4-8.3L330.2,144.4z M335.6,152.1
				c0,4.4,3.8,6.6,11.3,6.6c3.6,0,6.4-0.6,8.5-1.7c2.1-1.1,3.1-2.7,3.1-4.6c0-1.4-0.4-2.5-1.3-3.3c-0.9-0.7-2.4-1.3-4.6-1.6
				l-13.9-1.9C336.6,147.4,335.6,149.6,335.6,152.1z M337.2,123.8c0,5,3.2,7.5,9.7,7.5s9.7-2.5,9.7-7.5s-3.2-7.5-9.7-7.5
				S337.2,118.8,337.2,123.8z"/>
		</g>
	</g>
</g>
</svg>
